#!OML:ASF F:\VICON\USERDATA\INSTALL\rory3\rory3.ASF
:FULLY-SPECIFIED
:DEGREES
350
root -0.145193 18.0881 32.7273 -3.82117 -3.1877 -4.10024
lowerback 12.0983 -0.00452315 1.80723
upperback 0.34858 0.401543 2.37942
thorax -6.43472 0.177864 1.41706
lowerneck -15.3901 -2.46283 -1.47367
upperneck 24.0526 -3.00576 -0.344663
head 10.2373 -1.56502 -0.272672
rclavicle -1.64619e-015 1.25234e-014
rhumerus -31.6624 -26.1137 -74.3248
rradius 21.2978
rwrist 10.7162
rhand -14.4713 21.7913
rfingers 7.12502
rthumb 11.6747 -7.86344
lclavicle -1.64619e-015 1.25234e-014
lhumerus -32.1379 2.00496 82.0587
lradius 27.9701
lwrist 9.73513
lhand -28.8756 15.1118
lfingers 7.12502
lthumb -2.2316 45.0798
rfemur -11.7572 5.87803 29.8013
rtibia 27.5947
rfoot -9.43089 -2.70218
rtoes 11.6868
lfemur -15.1772 4.8537 -15.1694
ltibia 72.1022
lfoot 7.26921 -12.0038
ltoes -4.28047
351
root -0.154584 18.1007 32.8968 -3.80366 -3.34434 -4.02325
lowerback 11.8283 0.0933804 1.79503
upperback 0.562012 0.50916 2.30874
thorax -6.0574 0.231215 1.32833
lowerneck -16.1606 -2.50436 -1.32258
upperneck 24.4766 -3.04238 -0.539741
head 10.534 -1.5884 -0.387879
rclavicle -9.93923e-016 9.74045e-015
rhumerus -30.8715 -26.1445 -74.7304
rradius 21.5226
rwrist 10.5447
rhand -14.4554 21.987
rfingers 7.12502
rthumb 11.6899 -7.66681
lclavicle -9.93923e-016 9.74045e-015
lhumerus -31.9681 2.32051 82.0097
lradius 27.7745
lwrist 8.56292
lhand -27.8993 16.1466
lfingers 7.12502
lthumb -1.28861 46.1225
rfemur -11.2248 5.75666 29.8081
rtibia 27.7601
rfoot -10.066 -2.58195
rtoes 11.2912
lfemur -16.2154 5.01009 -15.3526
ltibia 72.3058
lfoot 5.8358 -11.4707
ltoes -5.12671
352
root -0.167298 18.0937 33.043 -3.74143 -3.55699 -4.31837
lowerback 11.7197 0.215087 2.1047
upperback 0.648879 0.709239 2.3731
thorax -5.9041 0.322518 1.18736
lowerneck -16.1199 -2.61792 -1.48664
upperneck 24.4028 -3.16834 -0.49518
head 10.5038 -1.65581 -0.360375
rclavicle -6.34869e-015 -3.57812e-015
rhumerus -30.1471 -26.07 -75.0291
rradius 21.5702
rwrist 10.0794
rhand -14.5099 22.2098
rfingers 7.12502
rthumb 11.6374 -7.44704
lclavicle -6.34869e-015 -3.57812e-015
lhumerus -31.9195 2.62613 82.0269
lradius 27.7413
lwrist 7.93603
lhand -26.8714 18.5512
lfingers 7.12502
lthumb -0.295925 48.5307
rfemur -10.7857 5.8501 30.2498
rtibia 27.8622
rfoot -10.4988 -2.59572
rtoes 10.9114
lfemur -17.4735 5.24403 -15.0485
ltibia 72.4599
lfoot 4.71641 -11.1714
ltoes -3.72686
353
root -0.17254 18.089 33.1947 -3.73203 -3.61788 -4.24154
lowerback 11.6697 0.291488 2.12433
upperback 0.667027 0.806753 2.30678
thorax -5.85617 0.369295 1.09037
lowerneck -15.9406 -2.64968 -1.58515
upperneck 24.3028 -3.20199 -0.442734
head 10.4358 -1.67443 -0.325917
rclavicle -2.01269e-015 -2.28602e-014
rhumerus -29.5282 -25.3773 -75.574
rradius 21.8516
rwrist 9.11698
rhand -14.8338 21.6269
rfingers 7.12502
rthumb 11.325 -8.04737
lclavicle -2.01269e-015 -2.28602e-014
lhumerus -32.0609 2.84585 82.0146
lradius 27.8227
lwrist 7.87523
lhand -25.7211 21.3215
lfingers 7.12502
lthumb 0.815083 51.2997
rfemur -10.2309 5.78299 30.2232
rtibia 27.9122
rfoot -11.0007 -2.55535
rtoes 11.1341
lfemur -18.6014 5.2651 -15.2715
ltibia 72.3917
lfoot 3.57126 -10.8553
ltoes -1.2371
354
root -0.171834 18.0951 33.365 -3.79143 -3.69317 -4.064
lowerback 11.7307 0.353624 2.15469
upperback 0.637042 0.887866 2.16446
thorax -5.91935 0.40594 0.910015
lowerneck -15.8826 -2.64196 -1.63274
upperneck 24.3229 -3.19228 -0.392199
head 10.4338 -1.66834 -0.297986
rclavicle -9.72181e-015 9.54166e-015
rhumerus -29.1394 -24.5501 -76.0518
rradius 22.3279
rwrist 8.23627
rhand -14.9963 21.2785
rfingers 7.12502
rthumb 11.1683 -8.40432
lclavicle -9.72181e-015 9.54166e-015
lhumerus -32.282 2.89416 81.999
lradius 27.6621
lwrist 7.7497
lhand -24.912 23.232
lfingers 7.12502
lthumb 1.59653 53.2058
rfemur -9.52263 5.51846 30.0401
rtibia 27.9338
rfoot -11.5849 -2.29864
rtoes 10.7565
lfemur -19.4511 5.1459 -15.6621
ltibia 72.0774
lfoot 2.52254 -10.3843
ltoes 0.85138
355
root -0.181378 18.0972 33.5332 -3.8612 -3.81195 -4.2184
lowerback 11.7418 0.401945 2.35297
upperback 0.700427 0.976194 2.15954
thorax -5.85541 0.444512 0.778331
lowerneck -16.0087 -2.61875 -1.63993
upperneck 24.419 -3.16247 -0.364816
head 10.4938 -1.6514 -0.285915
rclavicle -1.10574e-015 3.97569e-015
rhumerus -28.6641 -23.9769 -76.4543
rradius 22.759
rwrist 7.76665
rhand -14.9092 20.7681
rfingers 7.12502
rthumb 11.2523 -8.91014
lclavicle -1.10574e-015 3.97569e-015
lhumerus -32.4044 2.72293 82.1359
lradius 27.3444
lwrist 8.01548
lhand -25.2332 23.0673
lfingers 7.12502
lthumb 1.28636 53.0432
rfemur -8.80661 5.54891 30.3159
rtibia 27.9759
rfoot -12.1547 -2.46481
rtoes 9.83547
lfemur -20.2699 5.11254 -15.5794
ltibia 71.6576
lfoot 1.32575 -10.1265
ltoes -0.0561312
356
root -0.19478 18.0873 33.6859 -3.76477 -4.08605 -4.73929
lowerback 11.6198 0.473562 2.80911
upperback 0.795654 1.12875 2.26597
thorax -5.67997 0.510846 0.609137
lowerneck -16.1811 -2.59275 -1.55975
upperneck 24.4185 -3.14981 -0.343783
head 10.5255 -1.63485 -0.292724
rclavicle 3.91357e-016 -6.55989e-015
rhumerus -28.0281 -23.3298 -77.0267
rradius 23.2891
rwrist 7.17145
rhand -14.6862 20.1216
rfingers 7.12502
rthumb 11.4674 -9.54481
lclavicle 3.91357e-016 -6.55989e-015
lhumerus -32.5241 2.46561 82.2797
lradius 27.1872
lwrist 8.4911
lhand -25.7718 21.4285
lfingers 7.12502
lthumb 0.766155 51.4068
rfemur -8.33743 5.84509 31.0158
rtibia 28.013
rfoot -12.6053 -2.69643
rtoes 10.177
lfemur -21.2754 5.30666 -15.0311
ltibia 71.1717
lfoot 0.188945 -10.0646
ltoes -3.1112
357
root -0.201949 18.072 33.8298 -3.51822 -4.38869 -5.05479
lowerback 11.6596 0.566226 3.12808
upperback 0.754888 1.29799 2.28713
thorax -5.73748 0.585147 0.424012
lowerneck -16.0404 -2.59928 -1.80771
upperneck 24.1239 -3.18647 0.0177826
head 10.4026 -1.6314 -0.122883
rclavicle -6.1002e-015 -2.5842e-015
rhumerus -27.3192 -22.3496 -77.7136
rradius 23.7898
rwrist 6.31484
rhand -14.9909 20.2782
rfingers 7.12502
rthumb 11.1736 -9.4043
lclavicle -6.1002e-015 -2.5842e-015
lhumerus -32.6411 2.47336 82.2795
lradius 27.0671
lwrist 8.16439
lhand -25.2179 21.4613
lfingers 7.12502
lthumb 1.30109 51.4371
rfemur -8.07768 6.02254 31.4253
rtibia 28.0996
rfoot -13.0563 -2.70515
rtoes 10.2283
lfemur -22.5212 5.47784 -14.7726
ltibia 70.6351
lfoot -0.534515 -9.72369
ltoes -4.40699
358
root -0.204018 18.0598 33.9788 -3.35386 -4.51418 -5.07584
lowerback 11.8905 0.662495 3.29534
upperback 0.539158 1.46224 2.18772
thorax -6.086 0.654046 0.195076
lowerneck -15.3316 -2.60162 -2.02343
upperneck 23.5875 -3.21943 0.318136
head 10.0828 -1.63372 0.0292917
rclavicle -3.37313e-015 -1.21259e-014
rhumerus -27.1518 -21.2107 -78.2066
rradius 24.5359
rwrist 5.21016
rhand -15.4558 19.8324
rfingers 7.12502
rthumb 10.7251 -9.87379
lclavicle -3.37313e-015 -1.21259e-014
lhumerus -33.0299 2.29038 82.3604
lradius 26.9163
lwrist 7.67787
lhand -24.8239 21.6766
lfingers 7.12502
lthumb 1.68167 51.6497
rfemur -7.76346 5.95064 31.4781
rtibia 28.2108
rfoot -13.6258 -2.65011
rtoes 9.98823
lfemur -23.6032 5.37778 -14.8928
ltibia 69.92
lfoot -1.49901 -9.13115
ltoes -4.54294
359
root -0.208371 18.0432 34.1307 -3.24536 -4.6594 -5.3294
lowerback 11.9625 0.754511 3.60557
upperback 0.36529 1.64005 2.2242
thorax -6.30039 0.728293 0.027453
lowerneck -15.5906 -2.62996 -1.84049
upperneck 23.9311 -3.25946 0.138072
head 10.2497 -1.6554 -0.0764371
rclavicle 1.65737e-014 2.3556e-014
rhumerus -27.1455 -20.0143 -78.5178
rradius 25.373
rwrist 4.20272
rhand -15.5338 19.588
rfingers 7.12502
rthumb 10.6499 -10.1221
lclavicle 1.65737e-014 2.3556e-014
lhumerus -33.5241 1.84551 82.6686
lradius 26.6957
lwrist 7.56708
lhand -25.8194 19.8165
lfingers 7.12502
lthumb 0.720189 49.7951
rfemur -7.38832 5.90802 31.8056
rtibia 28.3604
rfoot -14.196 -2.65541
rtoes 9.34461
lfemur -24.3836 5.35258 -14.7074
ltibia 69.0849
lfoot -2.81702 -8.33984
ltoes -4.86541
360
root -0.213313 18.0254 34.2889 -3.22438 -4.86123 -5.73836
lowerback 11.8789 0.842644 4.11157
upperback 0.46572 1.81921 2.27005
thorax -6.12904 0.80548 -0.236527
lowerneck -15.956 -2.6528 -1.51566
upperneck 24.2746 -3.24936 -0.338152
head 10.4292 -1.67602 -0.306638
rclavicle -1.51698e-014 -1.04362e-014
rhumerus -26.5814 -19.0374 -79.0241
rradius 25.9952
rwrist 3.46499
rhand -15.9627 20.3142
rfingers 7.12502
rthumb 10.2361 -9.41672
lclavicle -1.51698e-014 -1.04362e-014
lhumerus -33.6369 1.25552 82.9805
lradius 26.5566
lwrist 7.63155
lhand -26.4583 18.2947
lfingers 7.12502
lthumb 0.103088 48.2744
rfemur -6.88388 5.95648 32.3191
rtibia 28.5365
rfoot -14.879 -2.7546
rtoes 8.36863
lfemur -24.9472 5.40627 -14.3043
ltibia 68.0301
lfoot -3.51503 -7.85464
ltoes -9.6639
361
root -0.216002 18.02 34.4474 -3.21291 -4.91153 -5.64325
lowerback 11.8492 0.87742 4.1204
upperback 0.590712 1.85219 2.16529
thorax -5.97469 0.823909 -0.355753
lowerneck -16.5321 -2.70162 -1.29077
upperneck 24.5269 -3.29026 -0.643963
head 10.6225 -1.70869 -0.470836
rclavicle -8.99501e-015 -3.45885e-014
rhumerus -25.8473 -18.1108 -79.6163
rradius 26.4901
rwrist 2.74567
rhand -16.4143 20.5625
rfingers 7.12502
rthumb 9.80048 -9.18943
lclavicle -8.99501e-015 -3.45885e-014
lhumerus -33.6579 1.33647 82.9487
lradius 26.6887
lwrist 7.5092
lhand -25.8266 18.7887
lfingers 7.12502
lthumb 0.713249 48.7672
rfemur -6.42236 5.87861 32.2474
rtibia 28.6834
rfoot -15.5225 -2.77041
rtoes 8.6512
lfemur -25.8161 5.10914 -14.5215
ltibia 66.465
lfoot -3.3637 -7.52001
ltoes -9.30034
